<svg xmlns="http://www.w3.org/2000/svg" xmlns:xlink="http://www.w3.org/1999/xlink" viewBox="0 0 800 82" width="800" height="82" role="img" aria-labelledby="t d"><title id="t">About</title><desc id="d"></desc><defs><path id="disp81" d="M14 0 238 660H474L698 0H522L485 124H227L190 0ZM453 232 364 534H348L259 232Z"/><path id="disp867" d="M396 -14Q346 -14 308.5 5Q271 24 247.5 62Q224 100 216 156H197L194 0H62V720H223V545Q223 521 219.5 494.5Q216 468 210.5 439Q205 410 199 377H222Q236 431 259 467Q282 503 316.5 521.5Q351 540 398 540Q464 540 512.5 506Q561 472 588 409.5Q615 347 615 260Q615 176 588.5 114.5Q562 53 513 19.5Q464 -14 396 -14ZM336 116Q369 116 394 134.5Q419 153 432.5 186.5Q446 220 446 265Q446 311 433 343.5Q420 376 396.5 394Q373 412 340 412Q318 412 299.5 404Q281 396 267 382Q253 368 243 350.5Q233 333 228 313.5Q223 294 223 275V254Q223 233 229 209Q235 185 248.5 164Q262 143 283.5 129.5Q305 116 336 116Z"/><path id="disp894" d="M305 -14Q225 -14 163.5 17Q102 48 67 110Q32 172 32 265Q32 358 67 419.5Q102 481 164 511.5Q226 542 306 542Q386 542 448 511Q510 480 545 418.5Q580 357 580 264Q580 169 544 107Q508 45 445.5 15.5Q383 -14 305 -14ZM310 103Q346 103 370 119.5Q394 136 406 170Q418 204 418 254Q418 307 405 343.5Q392 380 366.5 399.5Q341 419 301 419Q267 419 242.5 402.5Q218 386 206 352Q194 318 194 267Q194 185 224.5 144Q255 103 310 103Z"/><path id="disp8109" d="M243 -14Q149 -14 101.5 49.5Q54 113 54 243V528H216V264Q216 190 238 153.5Q260 117 305 117Q332 117 351.5 130.5Q371 144 384.5 168.5Q398 193 404.5 225Q411 257 411 295V528H572V0H444L441 163H421Q406 101 383.5 61.5Q361 22 327 4Q293 -14 243 -14Z"/><path id="disp8108" d="M268 -13Q175 -13 131 36.5Q87 86 87 195V402H12L15 527H69Q101 528 117.5 537Q134 546 138 571L151 645H242V528H369V397H242V202Q242 168 258.5 152Q275 136 309 136Q328 136 345 140Q362 144 373 151V2Q341 -8 314.5 -10.5Q288 -13 268 -13Z"/></defs><rect x="0" y="30" width="134.3" height="44" rx="11" fill="#FFC23D"/><g fill="#13233F"><use xlink:href="#disp81" transform="translate(23 61.9) scale(0.03 -0.03)"/><use xlink:href="#disp867" transform="translate(43.8 61.9) scale(0.03 -0.03)"/><use xlink:href="#disp894" transform="translate(62.74 61.9) scale(0.03 -0.03)"/><use xlink:href="#disp8109" transform="translate(80.6 61.9) scale(0.03 -0.03)"/><use xlink:href="#disp8108" transform="translate(99.12 61.9) scale(0.03 -0.03)"/></g><path d="M154.3 52 H716" stroke="#8FA0BF" stroke-opacity=".55" stroke-width="2" stroke-linecap="round"/><rect x="734" y="46" width="12" height="12" rx="3" fill="#FF6B57"/><rect x="752" y="46" width="12" height="12" rx="3" fill="#FFC23D"/><rect x="770" y="46" width="12" height="12" rx="3" fill="#3E63FF"/><rect x="788" y="46" width="12" height="12" rx="3" fill="#27C59A"/></svg>